<?xml version="1.0" encoding="UTF-8" standalone="no"?>
<svg
   width="136"
   height="36"
   viewBox="0 0 136 36"
   version="1.1"
   id="svg2"
   sodipodi:docname="orange_button_base_fixed_path.svg"
   inkscape:export-filename="orange_button_base.png"
   inkscape:export-xdpi="96"
   inkscape:export-ydpi="96"
   inkscape:version="1.3 (0e150ed6c4, 2023-07-21)"
   xmlns:inkscape="http://www.inkscape.org/namespaces/inkscape"
   xmlns:sodipodi="http://sodipodi.sourceforge.net/DTD/sodipodi-0.dtd"
   xmlns="http://www.w3.org/2000/svg"
   xmlns:svg="http://www.w3.org/2000/svg">
  <defs
     id="defs2" />
  <sodipodi:namedview
     id="namedview2"
     pagecolor="#ffffff"
     bordercolor="#000000"
     borderopacity="0.25"
     inkscape:showpageshadow="2"
     inkscape:pageopacity="0.0"
     inkscape:pagecheckerboard="0"
     inkscape:deskcolor="#d1d1d1"
     inkscape:zoom="17.864267"
     inkscape:cx="63.310741"
     inkscape:cy="23.538609"
     inkscape:window-width="3840"
     inkscape:window-height="2054"
     inkscape:window-x="3829"
     inkscape:window-y="-11"
     inkscape:window-maximized="1"
     inkscape:current-layer="svg2" />
  <!-- Main orange fill using the shape from the_shape.svg -->
  <path
     d="m 8.3016574,0.50379898 c -4.3045035,0 -7.7698696,3.46536602 -7.7698696,7.76986952 V 27.698342 c 0,4.304504 3.4653661,7.76987 7.7698696,7.76987 H 19.956462 c 0.06406,0 0.126019,-0.008 0.189693,-0.0096 h 7.489123 v -0.0096 h 0.09106 v 0.01911 L 35.496201,17.986005 27.73961,0.53415002 v -0.0303511 h -7.783148 z"
     fill="#fac93a"
     id="path1"
     style="stroke:#000000;stroke-width:1;stroke-linejoin:round;stroke-opacity:1"
     sodipodi:nodetypes="ssssscccccccccs" />
  <!-- Embossed/extruded effect: darker bottom/right, lighter top/left -->
  <path
     style="color:#000000;fill:#c98a1a;stroke-width:1;stroke-linejoin:round;-inkscape-stroke:none"
     d="m 8.4179688,0.03368272 c -4.6324532,0 -8.38428145,3.75182828 -8.38428145,8.38428138 V 27.582036 c 0,4.632453 3.75182825,8.384281 8.38428145,8.384281 H 19.916412 c 0.112608,0 0.166078,-0.0078 0.187148,-0.0094 h 7.388649 c 0.0031,-0.003 0.0064,-0.0063 0.0094,-0.0094 0,0 0.375833,0.0011 0.737337,-0.407983 L 35.90457,18.29188 c 0.08263,-0.185866 0.08263,-0.398039 0,-0.583905 L 28.313794,0.63068847 v 0.12164694 c -4e-5,-0.39688449 -0.321769,-0.71861302 -0.718653,-0.71865269 h -7.678729 z m 0,1.43730538 H 19.916412 27.114168 L 34.461642,18 c -2.42136,5.513408 -4.941613,10.987182 -7.315603,16.519654 h -7.042518 c -0.0057,-6.6e-5 -0.01123,-6.6e-5 -0.01684,0 -0.111437,0.0026 -0.166593,0.0094 -0.170264,0.0094 H 8.4179688 c -3.8610466,0 -6.9469761,-3.085929 -6.9469761,-6.946976 V 8.4179641 c 0,-3.8610464 3.0859295,-6.946976 6.9469761,-6.946976 z"
     id="path3"
     sodipodi:nodetypes="sssssccccccccccssccccccsssss" />
</svg>
