<svg
   width="36"
   height="36"
   viewBox="0 0 36 36"
   version="1.1"
   xmlns="http://www.w3.org/2000/svg">
  <!-- Main orange fill using the shape from the_shape.svg -->
  <path
     d="M 8 0 C 3.5680044 0 2.9709538e-16 3.5680044 0 8 L 0 28 C 0 32.431996 3.5680044 36 8 36 L 20 36 C 20.065952 36 20.129752 35.991806 20.195312 35.990234 L 27.90625 35.990234 L 27.90625 35.980469 L 28 35.980469 L 28 36 L 36 18 L 28.013672 0.03125 L 28.013672 0 L 20 0 L 8 0 z M 27.994141 34 L 28 34 L 28 35.712891 L 27.994141 35.712891 L 27.994141 34 z "
     fill="#FAC93A"/>
  <!-- Embossed/extruded effect: darker bottom/right, lighter top/left -->
  <path
     d="M 8 0 C 3.5680044 0 2.9709538e-16 3.5680044 0 8 L 0 28 C 0 32.431996 3.5680044 36 8 36 L 20 36 C 20.065952 36 20.129752 35.991806 20.195312 35.990234 L 27.90625 35.990234 L 27.90625 35.980469 L 28 35.980469 L 28 36 L 36 18 L 28.013672 0.03125 L 28.013672 0 L 20 0 L 8 0 z M 27.994141 34 L 28 34 L 28 35.712891 L 27.994141 35.712891 L 27.994141 34 z "
     fill="none" stroke="#C98A1A" stroke-width="1.5"/>
</svg>