<?xml version="1.0" encoding="UTF-8" standalone="no"?>
<svg
   width="36"
   height="36"
   viewBox="0 0 36 36"
   version="1.1"
   id="svg1"
   sodipodi:docname="the_shape.svg"
   inkscape:version="1.3 (0e150ed6c4, 2023-07-21)"
   xmlns:inkscape="http://www.inkscape.org/namespaces/inkscape"
   xmlns:sodipodi="http://sodipodi.sourceforge.net/DTD/sodipodi-0.dtd"
   xmlns="http://www.w3.org/2000/svg"
   xmlns:svg="http://www.w3.org/2000/svg">
  <defs
     id="defs1" />
  <sodipodi:namedview
     id="namedview1"
     pagecolor="#ffffff"
     bordercolor="#000000"
     borderopacity="0.25"
     inkscape:showpageshadow="2"
     inkscape:pageopacity="0.0"
     inkscape:pagecheckerboard="0"
     inkscape:deskcolor="#d1d1d1"
     inkscape:zoom="17.864267"
     inkscape:cx="6.6053648"
     inkscape:cy="15.197937"
     inkscape:window-width="3840"
     inkscape:window-height="2054"
     inkscape:window-x="3829"
     inkscape:window-y="-11"
     inkscape:window-maximized="1"
     inkscape:current-layer="svg1" />
  <!-- Main orange rectangle with 8px rounded corners, left 28px wide -->
  <path
     id="rect1"
     d="M 8 0 C 3.5680044 0 2.9709538e-16 3.5680044 0 8 L 0 28 C 0 32.431996 3.5680044 36 8 36 L 20 36 C 20.065952 36 20.129752 35.991806 20.195312 35.990234 L 27.90625 35.990234 L 27.90625 35.980469 L 28 35.980469 L 28 36 L 36 18 L 28.013672 0.03125 L 28.013672 0 L 20 0 L 8 0 z M 27.994141 34 L 28 34 L 28 35.712891 L 27.994141 35.712891 L 27.994141 34 z " />
  <!-- Tapered right side: triangle from (28,0) to (36,18) to (28,36) -->
  <!-- Optional: subtle highlight for polish -->
  <path
     style="fill:#faa838;stroke:none;stroke-width:1;fill-opacity:1;stroke-opacity:1;stroke-dasharray:none;stroke-linejoin:round"
     d="M 7.1091638,35.927802 C 6.244657,35.819307 5.2377088,35.517616 4.4837082,35.141188 2.2385451,34.020313 0.73789577,32.075545 0.18228474,29.566755 L 0.05597767,28.996432 V 17.99682 6.9972084 L 0.18228474,6.426885 C 0.539331,4.8146888 1.2493379,3.5043999 2.3768689,2.3768689 3.5043999,1.2493379 4.8146888,0.539331 6.426885,0.18228474 L 6.9972084,0.05597767 H 17.493021 27.988834 l 3.98854,8.96993813 3.988541,8.9699392 -3.988541,8.983442 -3.98854,8.983444 -10.355869,-0.0069 c -5.695727,-0.0038 -10.4314381,-0.01642 -10.5238012,-0.02801 z m 20.8933282,-1.54352 c -0.01037,-0.253998 -0.01886,-0.04618 -0.01886,0.461816 0,0.507997 0.0085,0.715815 0.01886,0.461816 0.01037,-0.253999 0.01037,-0.669633 0,-0.923632 z"
     id="path1" />
</svg>
